<?xml version="1.0" standalone="no"?>
<!DOCTYPE svg PUBLIC "-//W3C//DTD SVG 20010904//EN"
 "http://www.w3.org/TR/2001/REC-SVG-20010904/DTD/svg10.dtd">
<svg version="1.0" xmlns="http://www.w3.org/2000/svg"
 width="181.000000pt" height="100.000000pt" viewBox="0 0 181.000000 100.000000"
 preserveAspectRatio="xMidYMid meet">

<g transform="translate(0.000000,100.000000) scale(0.100000,-0.100000)"
fill="#000000" stroke="none">
<path d="M859 968 c-6 -13 -25 -37 -41 -54 -45 -48 -38 -124 12 -124 33 0 45
29 46 117 1 45 0 83 -2 83 -2 0 -8 -10 -15 -22z"/>
<path d="M713 870 c-159 -91 -192 -305 -66 -438 l45 -47 -36 44 c-93 114 -87
261 15 363 26 26 59 50 73 54 14 3 26 10 26 14 0 5 3 15 6 24 9 23 -4 20 -63
-14z"/>
<path d="M910 885 c0 -8 25 -26 55 -40 116 -55 178 -186 145 -305 -18 -65 -66
-127 -122 -159 -59 -34 -58 -42 0 -12 95 48 152 145 152 256 -1 112 -54 202
-151 251 -55 27 -79 30 -79 9z"/>
<path d="M891 854 c0 -11 3 -14 6 -6 3 7 2 16 -1 19 -3 4 -6 -2 -5 -13z"/>
<path d="M911 744 c-22 -18 -31 -35 -31 -55 0 -56 65 -21 79 44 11 46 -3 49
-48 11z"/>
<path d="M841 684 c-1 -6 6 -33 14 -60 21 -69 19 -137 -6 -185 -23 -47 -8 -50
25 -5 28 37 25 112 -7 196 -14 36 -26 60 -26 54z"/>
<path d="M696 620 c31 -52 70 -80 115 -80 49 0 51 17 6 66 -28 31 -41 37 -87
42 l-53 5 19 -33z"/>
<path d="M923 553 c-7 -2 -13 -8 -13 -12 0 -10 69 -1 76 10 5 9 -42 11 -63 2z"/>
<path d="M914 519 c-14 -24 41 -37 95 -22 22 6 22 6 -9 19 -39 17 -76 18 -86
3z"/>
<path d="M900 433 c-8 -3 -22 -15 -31 -26 -19 -23 -52 -17 -43 8 6 13 -1 16
-42 14 -69 -2 -95 -9 -87 -23 4 -6 8 -14 8 -18 0 -3 4 -10 9 -15 5 -5 6 -2 1
6 -5 9 -4 12 6 8 76 -31 124 -39 178 -28 59 12 136 55 126 71 -6 10 -99 12
-125 3z"/>
<path d="M68 293 c19 -8 16 -122 -4 -130 -8 -3 -20 -1 -27 6 -8 8 -8 11 1 11
7 0 12 7 12 15 0 8 -7 15 -16 15 -21 0 -15 -39 9 -54 32 -20 52 4 55 70 2 32
9 62 15 66 7 4 -3 7 -23 7 -19 0 -29 -3 -22 -6z"/>
<path d="M398 293 c6 -2 12 -15 12 -27 0 -17 -6 -22 -27 -21 -21 0 -30 -6 -37
-28 -8 -23 -6 -31 11 -49 17 -17 25 -19 36 -10 10 9 16 9 25 0 17 -17 18 -11
14 70 -3 66 -5 72 -25 71 -12 0 -16 -3 -9 -6z m10 -81 c5 -32 -16 -56 -34 -41
-15 12 -19 51 -7 63 14 13 38 0 41 -22z"/>
<path d="M470 290 c0 -5 5 -10 10 -10 6 0 10 5 10 10 0 6 -4 10 -10 10 -5 0
-10 -4 -10 -10z"/>
<path d="M1112 231 c-28 -65 -29 -69 -11 -74 10 -3 19 -1 19 4 0 5 -4 9 -10 9
-5 0 -7 7 -3 16 4 10 16 14 37 12 25 -2 31 -7 29 -25 -2 -16 3 -21 17 -20 11
1 19 4 18 7 -2 3 -14 36 -27 73 -14 37 -28 67 -31 67 -4 0 -21 -31 -38 -69z
m47 -8 c1 -7 -8 -13 -19 -13 -23 0 -23 0 -9 37 10 26 12 27 19 8 5 -11 9 -26
9 -32z"/>
<path d="M1365 289 c-11 -17 1 -21 15 -4 8 9 8 15 2 15 -6 0 -14 -5 -17 -11z"/>
<path d="M1535 290 c3 -5 8 -10 11 -10 2 0 4 5 4 10 0 6 -5 10 -11 10 -5 0 -7
-4 -4 -10z"/>
<path d="M808 254 c3 -19 1 -25 -7 -20 -17 11 -41 -12 -41 -40 0 -26 15 -38
50 -40 25 -1 25 0 22 62 -3 44 -8 64 -16 64 -9 0 -12 -9 -8 -26z m0 -48 c2 -9
1 -24 -3 -33 -10 -27 -39 8 -30 36 8 25 28 23 33 -3z"/>
<path d="M151 236 c-8 -10 -9 -16 -1 -21 9 -6 14 1 11 18 0 4 8 7 19 7 31 0
24 -24 -11 -37 -21 -8 -30 -17 -27 -30 2 -14 13 -18 45 -19 l41 0 -5 35 c-2
20 -6 42 -9 49 -5 16 -49 15 -63 -2z m49 -50 c0 -14 -29 -31 -38 -22 -2 3 -2
12 1 21 8 19 37 20 37 1z"/>
<path d="M258 238 c15 -15 15 -61 0 -76 -9 -9 -6 -12 14 -10 20 2 24 5 16 18
-6 10 -6 25 2 45 9 23 13 26 20 15 5 -8 12 -11 16 -7 4 4 3 12 -4 19 -8 8 -15
8 -27 -2 -10 -8 -15 -9 -15 -1 0 6 -8 11 -17 11 -13 0 -14 -3 -5 -12z"/>
<path d="M465 202 c0 -39 3 -48 18 -48 11 0 15 6 12 14 -3 7 -5 29 -5 48 0 20
-5 34 -12 34 -9 0 -13 -16 -13 -48z"/>
<path d="M535 198 c0 -28 4 -47 10 -45 6 2 9 17 7 34 -4 36 23 66 39 42 5 -8
8 -28 5 -46 -3 -23 -1 -30 8 -27 8 3 11 15 8 30 -5 26 14 58 29 48 5 -3 9 -22
9 -43 0 -26 4 -38 14 -38 11 0 13 10 9 36 -8 59 -7 59 -75 58 l-63 -1 0 -48z"/>
<path d="M1242 238 c-17 -17 -15 -63 3 -78 16 -13 55 -5 55 12 0 6 -7 5 -16
-3 -14 -11 -18 -10 -30 6 -8 11 -12 26 -9 33 3 8 5 18 5 23 0 15 22 10 37 -8
13 -17 14 -17 11 2 -4 23 -38 31 -56 13z"/>
<path d="M1331 236 c-8 -10 -9 -16 -1 -21 9 -6 14 1 11 18 0 4 8 7 19 7 31 0
24 -24 -11 -37 -21 -8 -30 -17 -27 -30 2 -14 13 -18 45 -19 l41 0 -5 35 c-2
20 -6 42 -9 49 -5 16 -49 15 -63 -2z m49 -50 c0 -14 -29 -31 -38 -22 -2 3 -2
12 1 21 8 19 37 20 37 1z"/>
<path d="M1442 238 c-7 -7 -12 -25 -12 -40 0 -36 40 -59 65 -38 8 7 13 15 10
18 -2 3 -12 -1 -20 -8 -22 -18 -37 0 -33 36 2 18 10 30 21 32 10 2 16 -1 15
-6 -3 -9 2 -12 18 -12 4 0 1 7 -6 15 -15 18 -42 19 -58 3z"/>
<path d="M1529 236 c8 -10 12 -29 8 -49 -4 -27 -2 -33 13 -33 14 0 16 4 9 13
-6 6 -9 27 -7 45 2 26 -1 33 -17 37 -17 3 -18 1 -6 -13z"/>
<path d="M1594 239 c-3 -6 -1 -16 5 -22 8 -8 11 -6 11 7 0 11 6 16 17 14 28
-5 25 -23 -7 -35 -32 -12 -40 -40 -15 -49 8 -4 22 -1 29 5 10 8 16 9 21 1 3
-5 11 -10 17 -10 7 0 6 5 -2 14 -6 8 -10 25 -9 38 2 13 0 29 -4 36 -10 15 -53
16 -63 1z m56 -48 c0 -15 -28 -33 -40 -26 -8 5 -8 11 1 21 13 15 39 19 39 5z"/>
<path d="M1703 234 c-7 -18 20 -44 45 -44 15 0 12 -22 -5 -27 -6 -2 -18 3 -27
12 -13 14 -16 14 -16 2 0 -16 34 -29 56 -20 19 7 18 42 -1 48 -49 16 -49 15
-36 28 9 9 16 9 31 -1 17 -10 20 -10 20 3 0 21 -59 20 -67 -1z"/>
<path d="M871 231 c-8 -5 -11 -16 -8 -24 3 -8 0 -20 -6 -26 -15 -15 -4 -23 36
-26 32 -3 33 -2 29 33 -6 47 -23 61 -51 43z m31 -26 c3 -14 -1 -30 -9 -36 -18
-16 -29 -3 -13 16 8 10 9 15 2 15 -6 0 -9 7 -6 15 9 23 21 18 26 -10z"/>
<path d="M962 228 c-18 -18 -15 -27 15 -39 19 -7 23 -13 15 -21 -8 -8 -15 -8
-27 2 -8 7 -15 8 -15 2 0 -13 26 -23 45 -16 24 9 18 34 -11 44 -22 9 -24 13
-14 25 15 18 9 20 -8 3z"/>
<path d="M990 220 c0 -5 5 -10 10 -10 6 0 10 5 10 10 0 6 -4 10 -10 10 -5 0
-10 -4 -10 -10z"/>
<path d="M496 101 c-4 -5 -2 -20 3 -33 9 -21 10 -21 10 10 1 32 -3 39 -13 23z"/>
<path d="M562 80 c0 -19 2 -27 5 -17 2 9 2 25 0 35 -3 9 -5 1 -5 -18z"/>
<path d="M702 80 c0 -19 2 -27 5 -17 2 9 2 25 0 35 -3 9 -5 1 -5 -18z"/>
<path d="M872 80 c0 -19 2 -27 5 -17 2 9 2 25 0 35 -3 9 -5 1 -5 -18z"/>
<path d="M1042 80 c0 -19 2 -27 5 -17 2 9 2 25 0 35 -3 9 -5 1 -5 -18z"/>
<path d="M1381 88 c-1 -31 15 -46 32 -29 9 9 8 11 -5 6 -13 -5 -18 0 -21 22
l-4 28 -2 -27z"/>
<path d="M1472 80 c0 -19 2 -27 5 -17 2 9 2 25 0 35 -3 9 -5 1 -5 -18z"/>
<path d="M284 89 c-3 -6 -2 -15 3 -20 5 -5 9 -1 10 11 2 22 -2 25 -13 9z"/>
<path d="M375 80 c2 -31 15 -37 15 -7 0 15 -4 27 -8 27 -5 0 -8 -9 -7 -20z"/>
<path d="M460 95 c0 -15 18 -40 24 -34 3 3 -1 14 -9 25 -8 10 -14 15 -15 9z"/>
<path d="M632 75 c0 -16 2 -22 5 -12 2 9 2 23 0 30 -3 6 -5 -1 -5 -18z"/>
<path d="M784 75 c-2 -33 11 -33 14 0 1 14 -2 25 -6 25 -4 0 -8 -11 -8 -25z"/>
<path d="M932 80 c0 -14 2 -19 5 -12 2 6 2 18 0 25 -3 6 -5 1 -5 -13z"/>
<path d="M960 80 c0 -19 3 -21 12 -12 9 9 9 15 0 24 -9 9 -12 7 -12 -12z"/>
<path d="M1141 80 c14 -31 19 -36 19 -24 0 6 -7 19 -16 30 -14 18 -14 18 -3
-6z"/>
<path d="M1203 72 c-1 -22 0 -24 9 -8 6 10 6 22 2 26 -5 5 -10 -3 -11 -18z"/>
<path d="M1284 89 c-3 -6 -2 -15 3 -20 5 -5 9 -1 9 11 0 23 -2 24 -12 9z"/>
<path d="M1318 75 c-3 -14 -2 -27 1 -30 4 -2 8 10 9 26 3 36 -4 38 -10 4z"/>
</g>
</svg>
